<svg width="154" height="68" viewBox="0 0 154 68" fill="none" xmlns="http://www.w3.org/2000/svg">
<g clip-path="url(#clip0_9_545)">
<path d="M24.4832 67.9288C18.9654 66.2233 13.9587 63.1551 9.91901 59.0035C5.87929 54.8519 2.93477 49.7488 1.35346 44.1587C-0.22784 38.5685 -0.395705 32.6689 0.865148 26.9967C2.126 21.3245 4.77553 16.06 8.57257 11.6823C11.2365 8.60854 14.4127 6.02653 17.9582 4.05248C21.5829 2.03274 25.5396 0.687967 29.6384 0.0827522V17.8204C27.4836 19.0875 25.8561 21.0963 25.0559 23.4765C24.4387 25.2839 24.474 26.7177 24.4745 26.7321L41.8627 27.0519C41.7787 27.253 41.6923 27.4444 41.6062 27.621C41.2475 28.3698 40.2377 29.1596 38.5189 30.0356C37.0396 30.7898 35.3062 31.4725 33.7768 32.075L33.4985 32.1846L33.2311 32.29L33.2103 32.2981C31.6478 32.9132 29.7034 33.6787 28.0248 34.7056C27.1122 35.2638 26.3711 35.8481 25.8216 36.4422C25.1847 37.1309 24.7797 37.8599 24.6176 38.6089C24.4546 39.3614 24.5569 40.1674 24.9217 41.0042C25.2677 41.7561 25.7285 42.4488 26.2873 43.0572C26.9488 43.794 27.6884 44.4557 28.493 45.0304C27.8163 44.161 27.3687 43.4019 27.1244 42.71C26.9048 42.1411 26.8494 41.5213 26.9644 40.922C27.1884 39.849 28.0133 38.9424 28.9684 37.8929L29.0275 37.8279C29.5397 37.2656 30.425 36.6961 31.7338 36.087C32.9026 35.543 34.3015 35.015 35.6542 34.5042C37.6336 33.757 39.6794 32.9845 41.1294 32.1235C42.482 31.3216 43.4245 30.4962 44.0104 29.6C44.5057 28.8663 44.7516 27.9907 44.7113 27.1044H44.7297L44.7204 25.7082C44.7058 24.6068 44.4344 23.5242 43.9278 22.5478C43.4622 21.6394 42.8756 20.7992 42.1842 20.0506C41.4257 19.2126 40.5748 18.4643 39.6482 17.8202V0.0605469C43.763 0.649813 47.7378 1.98445 51.3804 3.9999C58.5801 7.97147 64.1478 14.3856 67.0936 22.1018C69.185 27.5944 69.8616 33.5308 69.0604 39.3578C68.2592 45.1847 66.0063 50.7126 62.5116 55.4263C58.1494 61.3185 52.0546 65.6769 45.0929 67.8826V61.2734L27.3719 61.289C27.7621 60.5618 28.4048 59.8559 29.0851 59.1085C30.2844 57.7902 33.2475 56.6599 36.1131 55.5669C37.932 54.8731 39.8127 54.1557 41.1843 53.407C41.9634 52.9953 42.6709 52.4591 43.2794 51.8191C43.7652 51.3023 44.1448 50.6938 44.3964 50.0288C44.8179 48.8878 44.8001 47.6272 44.3444 46.383C43.6358 44.4409 41.3489 43.4205 40.6646 43.154C40.7394 43.1163 40.819 43.0786 40.896 43.0421C41.0075 42.9897 41.1223 42.9347 41.2233 42.8802C42.0023 42.4686 42.7099 41.9325 43.3186 41.2928C43.8043 40.7762 44.1838 40.168 44.4352 39.5032C44.8562 38.3625 44.8375 37.1014 44.381 35.8562C44.1687 35.3012 43.8426 34.7973 43.4241 34.3775C43.0364 33.9833 42.6026 33.638 42.1322 33.3491C41.6201 33.0275 41.076 32.7607 40.5089 32.5531C41.653 33.625 42.2562 34.6518 42.3548 35.6915C42.4462 36.6595 42.0941 37.5546 41.6995 38.3778C41.3415 39.1252 40.3345 39.9132 38.6209 40.7869C37.1452 41.539 35.4144 42.2208 33.8873 42.8223L33.592 42.9387L33.2904 43.0579C31.7292 43.6739 29.7864 44.4405 28.1107 45.467C27.1999 46.0247 26.46 46.6086 25.9116 47.2013C25.2758 47.8887 24.8715 48.6161 24.7086 49.3634C24.5539 50.0795 24.6388 50.8444 24.9608 51.6363C25.2707 52.3576 25.6913 53.0254 26.2071 53.6152C26.8992 54.4187 27.6825 55.1375 28.5411 55.7569C26.3107 57.0489 25.0452 58.4007 24.672 59.8899C24.558 60.3478 24.4975 60.8174 24.4917 61.2894H24.4827V67.9287L24.4832 67.9288ZM61.7942 35.1189V35.6845C62.1239 35.7209 62.3385 35.8274 62.4694 36.0196C62.5895 36.1959 62.6431 36.4464 62.6431 36.8319V46.1435C62.6431 46.5317 62.5895 46.7843 62.4694 46.9628C62.3371 47.1594 62.1225 47.2635 61.7942 47.2906V47.872H66.1367V47.2906C65.7994 47.2635 65.5792 47.1593 65.4437 46.9628C65.321 46.7847 65.2662 46.532 65.2662 46.1435V36.8319C65.2662 36.4461 65.3209 36.1956 65.4437 36.0196C65.5778 35.8277 65.7979 35.7212 66.1367 35.6845V35.1189H61.7942ZM48.1897 35.1189V35.703C48.7995 35.7536 49.172 36.0807 49.4753 36.8317L54.0711 47.872H55.5891L59.6232 36.8317C59.881 36.1024 60.2719 35.7543 60.8904 35.703V35.1189H58.0134V35.703C58.3143 35.7114 58.5213 35.7973 58.6282 35.9593C58.754 36.1494 58.7426 36.4429 58.5938 36.8317L55.5185 45.2489L52.3151 36.924C52.1868 36.5908 52.1957 36.2837 52.3399 36.0592C52.4785 35.8436 52.7266 35.7205 53.0576 35.7031V35.119L48.1897 35.1189ZM56.893 19.3396V19.6683C57.4131 19.7093 57.5893 19.9313 57.5893 20.5481V28.541C57.5893 29.1513 57.4136 29.3771 56.893 29.4357V29.7616H64.2554L64.5363 27.44H64.2704C64.1449 27.8209 63.9856 28.2558 63.6868 28.5951C63.3398 28.989 62.8725 29.1805 62.2581 29.1805H59.1555V24.7611H60.9878C61.4882 24.7611 61.8247 24.8426 62.0472 25.0175C62.2384 25.1678 62.3496 25.3913 62.408 25.7421H62.6737V23.2266H62.408C62.3059 23.8401 62.0407 24.1954 60.9878 24.1954H59.1555V19.9053H61.9194C62.5338 19.9053 63.0022 20.0973 63.3516 20.4918C63.6477 20.827 63.8055 21.246 63.932 21.6485H64.2099L63.932 19.3392L56.893 19.3396ZM48.3331 19.3396V19.6683C48.8531 19.7091 49.0293 19.9311 49.0293 20.5481V28.541C49.0293 28.8515 48.9855 29.0496 48.8873 29.1831C48.7819 29.3267 48.6109 29.4046 48.3331 29.4357V29.7616H55.7262L56.0071 27.44H55.7414C55.6137 27.8224 55.4524 28.2589 55.1566 28.5951C54.81 28.989 54.343 29.1805 53.7289 29.1805H50.6112V20.5481C50.6112 19.9315 50.7861 19.7096 51.3044 19.6683V19.3393L48.3331 19.3396ZM28.557 55.7479C27.8904 54.8848 27.4504 54.1302 27.2119 53.441C26.9972 52.8729 26.9462 52.2554 27.0647 51.6594C27.2944 50.5892 28.1198 49.6831 29.0755 48.6339L29.122 48.5829C30.3217 47.2655 33.2768 46.1335 36.1345 45.0388C37.6893 44.4432 39.2964 43.8273 40.5798 43.1953C41.6621 44.2401 42.2296 45.2438 42.3152 46.2637C42.3954 47.22 42.0495 48.0975 41.6638 48.9032C41.3047 49.6515 40.298 50.4398 38.586 51.3132C37.1115 52.064 35.3832 52.7458 33.858 53.3467L33.5563 53.4658C32.1536 54.0196 30.2324 54.7781 28.5577 55.7475L28.557 55.7479Z" fill="url(#paint0_linear_9_545)"/>
<path d="M79.8662 42.3332V42.8988C79.1974 42.9722 79.0173 43.3355 79.0173 44.046V46.4324C77.8783 47.598 75.8322 48.1454 74.0213 48.0559C70.1521 47.8714 67.1289 45.4665 67.1289 41.4963C67.1289 37.5231 70.0788 34.9368 73.951 34.9368C75.5786 34.9368 77.3712 35.4103 78.5469 36.1761V39.0545H78.04C77.4784 36.7757 76.0307 35.5917 74.0762 35.6102C71.3462 35.647 70.0422 38.2149 70.0422 41.4967C70.0422 44.9564 71.6699 47.272 74.2565 47.3797C75.2519 47.4351 75.9757 47.2167 76.5193 46.7431V44.0462C76.5193 43.3358 76.3391 42.9729 75.6521 42.899V42.3334L79.8662 42.3332Z" fill="#21080A"/>
<path d="M92.8897 35.1187V35.6843C92.2027 35.7576 92.0225 36.1209 92.0225 36.8314V47.8712H90.4471L82.7574 38.0709V46.1435C82.7574 46.8538 82.9406 47.2352 83.6277 47.2905V47.8717H80.8574V47.2906C81.5445 47.2353 81.7278 46.854 81.7278 46.1436V36.832C81.7278 36.1217 81.5445 35.7587 80.8574 35.6849V35.1193H83.8812L90.9903 44.2098V36.8316C90.9903 36.1212 90.8102 35.7583 90.1231 35.6845V35.1189L92.8897 35.1187Z" fill="#21080A"/>
<path d="M103.963 44.4307L103.6 47.8719H94.2461V47.2907C94.9332 47.2354 95.095 46.8541 95.095 46.1437V36.8321C95.095 36.1218 94.9332 35.7588 94.2461 35.685V35.1194H103.254L103.6 38.5453H103.148C102.894 37.5797 102.296 36.1588 100.598 36.1588H97.7182V40.8763H99.6391C100.885 40.8763 101.12 40.4581 101.248 39.6927H101.7V43.1178H101.248C101.12 42.352 100.885 41.9342 99.6391 41.9342H97.7182V46.8178H100.958C102.641 46.8178 103.255 45.397 103.508 44.4314L103.963 44.4307Z" fill="#21080A"/>
<path d="M116.914 47.2906V47.8718H113.512L110.364 42.6987H108.7V46.1431C108.7 46.8534 108.88 47.2348 109.567 47.2901V47.8713H105.225V47.2906C105.915 47.2353 106.095 46.854 106.095 46.1436V36.832C106.095 36.1217 105.915 35.7587 105.225 35.7034V35.1187H110.257C113.259 35.1187 115.339 36.5763 115.339 38.9103C115.339 40.4387 114.453 41.5857 112.987 42.207L115.537 46.1433C115.956 46.7801 116.389 47.1983 116.914 47.2906ZM109.659 41.6598C111.595 41.6598 112.59 40.5495 112.59 38.9105C112.59 37.2683 111.595 36.1768 109.659 36.1768H108.7V41.66L109.659 41.6598Z" fill="#21080A"/>
<path d="M130.572 41.4971C130.572 45.3042 127.551 48.0567 123.734 48.0567C119.917 48.0567 116.912 45.304 116.912 41.4971C116.912 37.6715 119.917 34.9375 123.734 34.9375C127.551 34.9375 130.572 37.6712 130.572 41.4971ZM127.713 41.4971C127.713 37.7976 126.012 35.6106 123.734 35.6106C121.471 35.6106 119.77 37.7972 119.77 41.4971C119.77 45.1751 121.471 47.3801 123.734 47.3801C126.012 47.3798 127.713 45.1749 127.713 41.4971Z" fill="#21080A"/>
<path d="M143.686 35.1187V35.6843C142.999 35.7576 142.816 36.1209 142.816 36.8314V47.8712H141.243L133.554 38.0709V46.1435C133.554 46.8538 133.734 47.2352 134.424 47.2905V47.8717H131.654V47.2906C132.341 47.2353 132.522 46.854 132.522 46.1436V36.832C132.522 36.1217 132.341 35.7587 131.654 35.6849V35.1193H134.674L141.787 44.2098V36.8316C141.787 36.1212 141.603 35.7583 140.916 35.6845V35.1189L143.686 35.1187Z" fill="#21080A"/>
<path d="M153.563 45.2856C153.019 47.3091 151.105 48.0564 149.095 48.0564C147.468 48.0564 145.855 47.6536 144.68 46.8171V43.8279H145.132C145.785 45.9221 147.013 47.2722 148.732 47.3798C150.271 47.4531 151.086 46.651 151.212 45.5407C151.392 43.9016 150.216 43.4834 148.662 42.5885C146.832 41.5337 144.554 40.1652 145.296 37.3606C145.748 35.5923 147.483 34.9373 149.33 34.9373C150.778 34.9373 151.774 35.3555 152.967 36.1766L152.986 38.7997H152.534C151.972 36.5394 151.031 35.6845 149.566 35.6106C148.173 35.5373 147.501 36.3026 147.468 37.1975C147.413 38.4522 148.695 39.2364 150.344 40.202C152.604 41.5337 154.323 42.5331 153.563 45.2856Z" fill="#21080A"/>
<path d="M69.6756 58.4652C70.4479 58.4652 71.0739 57.8348 71.0739 57.0571C71.0739 56.2794 70.4479 55.6489 69.6756 55.6489C68.9034 55.6489 68.2773 56.2794 68.2773 57.0571C68.2773 57.8348 68.9034 58.4652 69.6756 58.4652Z" fill="#21080A"/>
<path d="M151.56 58.421C152.333 58.421 152.959 57.7906 152.959 57.0129C152.959 56.2352 152.333 55.6047 151.56 55.6047C150.788 55.6047 150.162 56.2352 150.162 57.0129C150.162 57.7906 150.788 58.421 151.56 58.421Z" fill="#21080A"/>
<path d="M73.7832 59.8993V53.7915H75.0566C75.6673 53.7915 76.1498 53.85 76.501 53.9729C76.887 54.0937 77.2409 54.3008 77.5362 54.5787C78.1622 55.1508 78.4747 55.9063 78.4737 56.8453C78.4737 57.7832 78.1478 58.5428 77.496 59.124C77.1985 59.3953 76.8484 59.6018 76.4679 59.7304C76.1319 59.8441 75.6556 59.8995 75.0418 59.8995L73.7832 59.8993ZM74.6993 59.0321H75.1116C75.4581 59.0404 75.8039 58.9969 76.1377 58.9029C76.5616 58.7586 76.9281 58.4805 77.1827 58.1099C77.4374 57.7393 77.5667 57.296 77.5516 56.8456C77.5516 56.1752 77.3286 55.6319 76.8828 55.2157C76.4828 54.8436 75.8903 54.656 75.1116 54.656H74.6997L74.6993 59.0321Z" fill="#21080A"/>
<path d="M82.972 54.6559H80.5412V56.126H82.9013V56.9901H80.5403V59.0326H82.972V59.8999H79.625V53.7915H82.972V54.6559Z" fill="#21080A"/>
<path d="M90.0874 54.6991L89.3453 55.145C89.2049 54.902 89.0735 54.7421 88.9483 54.6683C88.7944 54.5793 88.6187 54.5357 88.4414 54.5426C88.2111 54.5344 87.986 54.6121 87.8092 54.7609C87.7287 54.8249 87.6639 54.9069 87.62 55.0002C87.576 55.0936 87.5541 55.1959 87.5558 55.2993C87.5558 55.5976 87.7757 55.8374 88.2185 56.0188L88.8231 56.2679C89.3147 56.4679 89.6751 56.7138 89.901 57.0029C90.1346 57.3055 90.2556 57.6808 90.243 58.0638C90.2505 58.3221 90.2051 58.5791 90.1094 58.8188C90.0138 59.0585 89.87 59.2757 89.6872 59.4569C89.5034 59.6388 89.2851 59.7816 89.0454 59.8767C88.8056 59.9718 88.5492 60.0173 88.2916 60.0105C87.8131 60.0279 87.3462 59.8595 86.9876 59.54C86.6487 59.2263 86.438 58.7845 86.3555 58.2146L87.2812 58.0085C87.3239 58.3683 87.3972 58.6144 87.501 58.7527C87.5951 58.883 87.7202 58.9874 87.8648 59.0562C88.0095 59.1249 88.169 59.156 88.3286 59.1463C88.4599 59.1503 88.5906 59.1269 88.7125 59.0777C88.8344 59.0285 88.9449 58.9546 89.0371 58.8604C89.1312 58.7641 89.2048 58.6495 89.2536 58.5237C89.3024 58.3979 89.3254 58.2635 89.3212 58.1285C89.3228 58.0168 89.3063 57.9056 89.2723 57.7994C89.2378 57.7007 89.1861 57.6091 89.1196 57.5287C89.042 57.4378 88.9515 57.3591 88.8509 57.295C88.7257 57.214 88.5939 57.1439 88.4569 57.0855L87.8706 56.8395C87.04 56.4889 86.6277 55.9692 86.6277 55.2893C86.6242 55.0705 86.6692 54.8537 86.7596 54.6547C86.8499 54.4557 86.9833 54.2796 87.1499 54.1391C87.5078 53.823 87.9719 53.6559 88.4477 53.6717C89.1469 53.672 89.6939 54.0164 90.0874 54.6991Z" fill="#21080A"/>
<path d="M94.8488 58.414H92.253L91.5751 59.8994H90.5918L93.5906 53.4075L96.4886 59.8994H95.487L94.8488 58.414ZM94.4762 57.5499L93.5753 55.471L92.6347 57.5499H94.4762Z" fill="#21080A"/>
<path d="M98.1622 53.7915V59.899H97.2461V53.7915H98.1622Z" fill="#21080A"/>
<path d="M99.6172 59.8994V53.3767L104.039 58.0357V53.7919H104.955V60.2716L100.533 55.6215V59.8992L99.6172 59.8994Z" fill="#21080A"/>
<path d="M108.084 54.6559V59.8993H107.168V54.6559H105.775V53.7915H109.477V54.6556L108.084 54.6559Z" fill="#21080A"/>
<path d="M116.909 54.6559H114.476V56.126H116.839V56.9901H114.476V59.0326H116.909V59.8999H113.562V53.7915H116.909V54.6559Z" fill="#21080A"/>
<path d="M117.898 59.8994L119.175 53.3306L121.258 58.0787L123.414 53.3306L124.562 59.8994H123.621L123.038 56.2124L121.242 60.1795L119.499 56.2098L118.845 59.9002L117.898 59.8994Z" fill="#21080A"/>
<path d="M126.76 53.7915V59.899H125.844V53.7915H126.76Z" fill="#21080A"/>
<path d="M129.133 53.7915V59.0317H130.916V59.899H128.217V53.7915H129.133Z" fill="#21080A"/>
<path d="M132.7 53.7915V59.899H131.787V53.7915H132.7Z" fill="#21080A"/>
<path d="M133.858 56.8179C133.853 56.403 133.934 55.9917 134.095 55.6099C134.256 55.2282 134.495 54.8844 134.795 54.6003C135.089 54.3017 135.439 54.0658 135.825 53.9068C136.211 53.7477 136.626 53.6687 137.043 53.6746C137.878 53.68 138.677 54.0165 139.267 54.6111C139.858 55.2057 140.192 56.0106 140.197 56.8514C140.204 57.2691 140.125 57.6836 139.964 58.0685C139.803 58.4535 139.564 58.8004 139.263 59.0872C138.682 59.6601 137.908 59.9896 137.095 60.0091C136.283 60.0285 135.493 59.7364 134.887 59.1919C134.2 58.5862 133.857 57.7948 133.858 56.8179ZM134.78 56.8302C134.77 57.1396 134.825 57.4477 134.942 57.7343C135.058 58.0209 135.233 58.2797 135.455 58.4939C135.657 58.7013 135.899 58.8658 136.165 58.9778C136.431 59.0898 136.717 59.1469 137.006 59.1458C137.306 59.1521 137.603 59.0964 137.881 58.9822C138.158 58.8679 138.409 58.6975 138.618 58.4815C139.038 58.0418 139.274 57.4555 139.275 56.8452C139.276 56.2349 139.043 55.6477 138.624 55.2064C138.419 54.9902 138.171 54.8195 137.897 54.7051C137.622 54.5908 137.327 54.5352 137.03 54.5421C136.733 54.5364 136.437 54.5924 136.162 54.7067C135.886 54.821 135.637 54.9911 135.43 55.2064C135.218 55.4182 135.05 55.6714 134.939 55.9507C134.827 56.2299 134.773 56.5292 134.78 56.8302Z" fill="#21080A"/>
<path d="M141.348 59.8994V53.3767L145.77 58.0357V53.7919H146.686V60.2716L142.264 55.6215V59.8992L141.348 59.8994Z" fill="#21080A"/>
<path d="M77.7531 26.8001L77.4416 28.8541C76.5408 29.5092 75.5788 29.9704 73.8625 29.912C70.8027 29.8229 68.3047 27.7962 68.3047 24.5518C68.3047 21.3048 70.6561 19.1917 73.774 19.1917C75.1053 19.1917 76.4796 19.6221 77.4416 20.2495V22.3622H77.1301C76.6873 20.5017 75.3864 19.6098 73.774 19.6098C71.4684 19.6098 70.0331 21.6917 70.0331 24.5517C70.0331 27.4087 71.4684 29.3615 73.774 29.5091C75.5788 29.6138 76.8796 28.691 77.4569 26.7997L77.7531 26.8001Z" fill="#21080A"/>
<path d="M86.5029 27.4397L86.2221 29.7615H78.8594V29.4355C79.406 29.3741 79.5556 29.1218 79.5556 28.5406V20.548C79.5556 19.9668 79.4059 19.7115 78.8594 19.6681V19.3394H85.8983L86.1791 21.6489H85.8983C85.6601 20.8895 85.2601 19.905 83.8858 19.905H81.1222V24.1952H82.9544C83.9896 24.1952 84.2706 23.8508 84.3745 23.2264H84.6401V25.742H84.3745C84.2705 25.1178 83.9896 24.761 82.9544 24.761H81.1222V29.1802H84.2279C85.6021 29.1802 85.9869 28.1992 86.2373 27.4396L86.5029 27.4397Z" fill="#21080A"/>
<path d="M96.7319 29.4355V29.7612H94.6034L91.8826 25.4281C91.7329 25.4281 91.571 25.4435 91.4249 25.4435H89.9617V28.5403C89.9617 29.1215 90.1083 29.3887 90.6549 29.4352V29.7612H87.6836V29.4352C88.2452 29.3891 88.3921 29.1215 88.3921 28.5403V20.548C88.3921 19.9668 88.2456 19.7115 87.6836 19.6681V19.3394H91.4245C93.5957 19.3394 95.5044 20.2651 95.5044 22.3931C95.5044 23.8386 94.6307 24.7149 93.3759 25.1454L95.6083 28.5405C95.9318 29.048 96.3319 29.3463 96.7319 29.4355ZM93.8643 22.3932C93.8643 20.8586 92.8444 19.9053 91.2745 19.9053H89.9617V24.8657H91.2748C92.8444 24.8657 93.8645 23.9277 93.8645 22.3931L93.8643 22.3932Z" fill="#21080A"/>
<path d="M106.25 26.8001L105.941 28.8541C105.038 29.5092 104.076 29.9704 102.363 29.912C99.3027 29.8229 96.8047 27.7962 96.8047 24.5518C96.8047 21.3048 99.153 19.1917 102.274 19.1917C103.605 19.1917 104.98 19.6221 105.942 20.2495V22.3622H105.63C105.187 20.5017 103.886 19.6098 102.274 19.6098C99.9684 19.6098 98.5331 21.6917 98.5331 24.5517C98.5331 27.4087 99.9684 29.3615 102.274 29.5091C104.076 29.6138 105.38 28.691 105.954 26.7997L106.25 26.8001Z" fill="#21080A"/>
<path d="M115.033 27.4397L114.753 29.7615H107.359V29.4355C107.906 29.3741 108.053 29.1218 108.053 28.5406V20.548C108.053 19.9668 107.906 19.7115 107.359 19.6681V19.3394H110.331V19.6685C109.784 19.7115 109.634 19.9668 109.634 20.5483V29.1806H112.755C114.13 29.1806 114.514 28.1996 114.765 27.44L115.033 27.4397Z" fill="#21080A"/>
<path d="M123.563 27.4397L123.28 29.7615H115.92V29.4355C116.467 29.3741 116.613 29.1218 116.613 28.5406V20.548C116.613 19.9668 116.467 19.7115 115.92 19.6681V19.3394H122.956L123.237 21.6489H122.956C122.718 20.8895 122.321 19.905 120.946 19.905H118.18V24.1952H120.015C121.047 24.1952 121.328 23.8508 121.432 23.2264H121.701V25.742H121.432C121.328 25.1178 121.047 24.761 120.015 24.761H118.18V29.1802H121.285C122.66 29.1802 123.044 28.1992 123.295 27.4396L123.563 27.4397Z" fill="#21080A"/>
<path d="M137.369 24.5519C137.369 27.3658 135.433 29.7615 131.573 29.7615L127.701 29.7461V29.4355C128.248 29.3741 128.394 29.1218 128.394 28.5406V20.548C128.394 19.9668 128.248 19.7115 127.701 19.6681V19.3394H131.573C135.433 19.3394 137.369 21.7379 137.369 24.5519ZM135.699 24.5519C135.699 21.6796 134.206 19.9052 131.366 19.9052H129.976V29.1802H131.366C134.206 29.1803 135.699 27.4243 135.699 24.5519Z" fill="#21080A"/>
<path d="M145.972 27.4397L145.691 29.7615H138.328V29.4355C138.875 29.3741 139.021 29.1218 139.021 28.5406V20.548C139.021 19.9668 138.875 19.7115 138.328 19.6681V19.3394H145.364L145.645 21.6489H145.364C145.129 20.8895 144.729 19.905 143.355 19.905H140.588V24.1952H142.424C143.459 24.1952 143.74 23.8508 143.844 23.2264H144.109V25.742H143.843C143.739 25.1178 143.458 24.761 142.423 24.761H140.588V29.1802H143.694C145.068 29.1802 145.453 28.1992 145.706 27.4396L145.972 27.4397Z" fill="#21080A"/>
<path d="M153.892 27.6487C153.45 29.3463 151.895 29.9121 150.359 29.9121C149.015 29.9121 147.892 29.54 146.93 28.8542V26.7538H147.211C147.742 28.4668 148.747 29.4352 150.151 29.5093C151.571 29.5826 152.28 28.8389 152.445 27.9009C152.695 26.4432 151.513 25.8035 150.151 25.0285C148.658 24.1801 147.049 23.168 147.491 21.1721C147.815 19.7114 149.058 19.1763 150.463 19.1763C151.602 19.1763 152.445 19.5791 153.419 20.2342V22.2452H153.138C152.695 20.3969 151.837 19.6371 150.655 19.5943C149.501 19.5328 148.912 20.1294 148.835 21.0366C148.719 22.3343 149.886 22.8849 151.232 23.6721C153.08 24.761 154.396 25.6375 153.892 27.6487Z" fill="#21080A"/>
</g>
<defs>
<linearGradient id="paint0_linear_9_545" x1="59.6773" y1="11.4624" x2="8.87829" y2="55.4434" gradientUnits="userSpaceOnUse">
<stop stop-color="#21080A"/>
<stop offset="1" stop-color="#720A0A"/>
</linearGradient>
<clipPath id="clip0_9_545">
<rect width="154" height="68" fill="white"/>
</clipPath>
</defs>
</svg>
