<svg width="29" height="23" viewBox="0 0 29 23" fill="none" xmlns="http://www.w3.org/2000/svg">
<path d="M3.625 2.4375C2.62246 2.4375 1.8125 3.24746 1.8125 4.25V6.50996L12.8914 14.6322C13.8486 15.3346 15.1514 15.3346 16.1086 14.6322L27.1875 6.50996V4.25C27.1875 3.24746 26.3775 2.4375 25.375 2.4375H3.625ZM1.8125 8.75859V18.75C1.8125 19.7525 2.62246 20.5625 3.625 20.5625H25.375C26.3775 20.5625 27.1875 19.7525 27.1875 18.75V8.75859L17.1791 16.0936C15.5818 17.2604 13.4125 17.2604 11.8209 16.0936L1.8125 8.75859ZM0 4.25C0 2.25059 1.62559 0.625 3.625 0.625H25.375C27.3744 0.625 29 2.25059 29 4.25V18.75C29 20.7494 27.3744 22.375 25.375 22.375H3.625C1.62559 22.375 0 20.7494 0 18.75V4.25Z" fill="white"/>
</svg>
