<svg width="29" height="29" viewBox="0 0 29 29" fill="none" xmlns="http://www.w3.org/2000/svg">
<path d="M21.2819 15.5842C20.3531 15.1877 19.2771 15.4482 18.6372 16.2298L16.7571 18.529C14.152 17.0169 11.9774 14.8423 10.4654 12.2373L12.7589 10.3628C13.5404 9.72287 13.8066 8.64689 13.4045 7.71814L10.6862 1.37549C10.2615 0.378789 9.19118 -0.176193 8.13218 0.0503307L1.78953 1.40947C0.747527 1.63033 0 2.55341 0 3.62373C0 17.0282 10.3918 28.0033 23.5584 28.932C23.8133 28.949 24.0738 28.966 24.3343 28.9773C24.3343 28.9773 24.3343 28.9773 24.3399 28.9773C24.6854 28.9887 25.0252 29 25.3763 29C26.4466 29 27.3697 28.2525 27.5905 27.2105L28.9497 20.8678C29.1762 19.8088 28.6212 18.7385 27.6245 18.3138L21.2819 15.5955V15.5842ZM25.3536 27.1822C12.3512 27.1708 1.81219 16.6318 1.81219 3.62373C1.81219 3.40854 1.95943 3.22732 2.16896 3.18201L8.51161 1.82288C8.72114 1.77757 8.93634 1.89083 9.02129 2.08904L11.7396 8.43169C11.8188 8.61857 11.7679 8.83377 11.6093 8.95836L9.3101 10.8385C8.62487 11.3991 8.44365 12.3789 8.89104 13.149C10.5616 16.0315 12.9628 18.4327 15.8396 20.0976C16.6098 20.545 17.5895 20.3638 18.1502 19.6786L20.0303 17.3794C20.1606 17.2208 20.3758 17.1698 20.557 17.2491L26.8996 19.9674C27.0978 20.0523 27.2111 20.2675 27.1658 20.4771L25.8067 26.8197C25.7614 27.0292 25.5745 27.1765 25.3649 27.1765C25.3593 27.1765 25.3536 27.1765 25.348 27.1765L25.3536 27.1822Z" fill="#21080A"/>
</svg>
